<svg xmlns="http://www.w3.org/2000/svg" viewBox="0 0 680 720" width="1020" height="1080">
<title>Arlequin: esquema de ligações do sistema de navegação</title>
<style>
text{font-family:Arial,Helvetica,sans-serif}
.th{font-size:14px;font-weight:bold;fill:#1f1f1f}
.ts{font-size:12px;fill:#444}
.arr{stroke:#444;stroke-width:1.5;fill:none}
.c-gray rect{fill:#F1EFE8;stroke:#5F5E5A}.c-gray text{fill:#2C2C2A}
.c-teal rect{fill:#E1F5EE;stroke:#0F6E56}.c-teal text{fill:#085041}
.c-purple rect{fill:#EEEDFE;stroke:#534AB7}.c-purple text{fill:#3C3489}
</style>
<defs><marker id="arrow" viewBox="0 0 10 10" refX="8" refY="5" markerWidth="6" markerHeight="6" orient="auto-start-reverse"><path d="M2 1L8 5L2 9" fill="none" stroke="context-stroke" stroke-width="1.5" stroke-linecap="round" stroke-linejoin="round"/></marker></defs>
<rect x="0" y="0" width="680" height="720" fill="#ffffff"/>
<rect x="4" y="4" width="672" height="708" rx="6" fill="none" stroke="#bbb" stroke-width="0.8"/>
<text class="th" x="20" y="28">ARLEQUIN · Jeanneau Melody 34</text>
<text class="ts" x="20" y="48">Esquema de ligações do sistema de navegação · 28/09/2026</text>
<line x1="4" y1="60" x2="676" y2="60" stroke="#bbb" stroke-width="0.8"/>
<text class="ts" x="130" y="82" text-anchor="middle">Entradas</text>
<text class="ts" x="340" y="82" text-anchor="middle">Mesa de navegação</text>
<text class="ts" x="555" y="82" text-anchor="middle">Saídas</text>
<g class="c-purple"><rect x="40" y="94" width="180" height="44" rx="4" stroke-width="0.5"/><text class="th" x="130" y="112" text-anchor="middle">NASA Clipper Wind</text><text class="ts" x="130" y="129" text-anchor="middle">0183 IN 1 · vento</text></g>
<g class="c-purple"><rect x="40" y="146" width="180" height="44" rx="4" stroke-width="0.5"/><text class="th" x="130" y="164" text-anchor="middle">NASA Clipper Log</text><text class="ts" x="130" y="181" text-anchor="middle">0183 IN 2 · velocidade</text></g>
<g class="c-purple"><rect x="40" y="198" width="180" height="44" rx="4" stroke-width="0.5"/><text class="th" x="130" y="216" text-anchor="middle">ST4000+ (só dados)</text><text class="ts" x="130" y="233" text-anchor="middle">SeaTalk1 · proa</text></g>
<g class="c-purple"><rect x="40" y="250" width="180" height="44" rx="4" stroke-width="0.5"/><text class="th" x="130" y="268" text-anchor="middle">Autohelm ST50</text><text class="ts" x="130" y="285" text-anchor="middle">SeaTalk1 · proa</text></g>
<g class="c-purple"><rect x="40" y="302" width="180" height="44" rx="4" stroke-width="0.5"/><text class="th" x="130" y="320" text-anchor="middle">NASA Clipper Depth</text><text class="ts" x="130" y="337" text-anchor="middle">USB ou ESP32 · fundo</text></g>
<g class="c-purple"><rect x="40" y="354" width="180" height="44" rx="4" stroke-width="0.5"/><text class="th" x="130" y="372" text-anchor="middle">Motor Volvo D1-20B</text><text class="ts" x="130" y="389" text-anchor="middle">CAN · USB-CAN, só escuta</text></g>
<g class="c-purple"><rect x="40" y="406" width="180" height="44" rx="4" stroke-width="0.5"/><text class="th" x="130" y="424" text-anchor="middle">Gasóleo 200 L inox</text><text class="ts" x="130" y="441" text-anchor="middle">sonda · ADS1115 I²C</text></g>
<g class="c-teal"><rect x="40" y="458" width="180" height="44" rx="4" stroke-width="0.5"/><text class="th" x="130" y="476" text-anchor="middle">Barómetro BME280</text><text class="ts" x="130" y="493" text-anchor="middle">I²C · fora da caixa</text></g>
<line x1="220" y1="116" x2="258" y2="116" class="arr" marker-end="url(#arrow)"/>
<line x1="220" y1="168" x2="258" y2="168" class="arr" marker-end="url(#arrow)"/>
<line x1="220" y1="220" x2="258" y2="220" class="arr" marker-end="url(#arrow)"/>
<path d="M220 272 L236 272 L236 220" fill="none" stroke="#666" stroke-width="1"/>
<line x1="220" y1="324" x2="258" y2="324" class="arr" marker-end="url(#arrow)"/>
<line x1="220" y1="376" x2="258" y2="376" class="arr" marker-end="url(#arrow)"/>
<line x1="220" y1="428" x2="258" y2="428" class="arr" marker-end="url(#arrow)"/>
<line x1="220" y1="480" x2="258" y2="480" class="arr" marker-end="url(#arrow)"/>
<rect x="250" y="90" width="180" height="424" rx="8" fill="none" stroke="#bbb" stroke-width="0.8" stroke-dasharray="5 4"/>
<g class="c-teal"><rect x="260" y="100" width="160" height="176" rx="4" stroke-width="0.5"/><text class="th" x="340" y="180" text-anchor="middle">MacArthur HAT</text><text class="ts" x="340" y="198" text-anchor="middle">NMEA 0183 · SeaTalk1</text><text class="ts" x="340" y="214" text-anchor="middle">NMEA 2000 · I²C</text></g>
<g class="c-teal"><rect x="260" y="286" width="160" height="218" rx="4" stroke-width="0.5"/><text class="th" x="340" y="370" text-anchor="middle">Raspberry Pi 5 · 8 GB</text><text class="ts" x="340" y="388" text-anchor="middle">OpenCPN + SignalK</text><text class="ts" x="340" y="404" text-anchor="middle">diário do Arlequin</text><text class="ts" x="340" y="420" text-anchor="middle">SSD NVMe · 2 × HDMI</text></g>
<g class="c-purple"><rect x="470" y="94" width="170" height="44" rx="4" stroke-width="0.5"/><text class="th" x="555" y="112" text-anchor="middle">Radar JRC 1000</text><text class="ts" x="555" y="129" text-anchor="middle">0183 OUT 1 · posição, proa</text></g>
<g class="c-purple"><rect x="470" y="146" width="170" height="44" rx="4" stroke-width="0.5"/><text class="th" x="555" y="164" text-anchor="middle">VHF Navicom RT750</text><text class="ts" x="555" y="181" text-anchor="middle">0183 OUT 1 · posição DSC</text></g>
<g class="c-teal"><rect x="470" y="198" width="170" height="44" rx="4" stroke-width="0.5"/><text class="th" x="555" y="216" text-anchor="middle">2 besouros 95 dB</text><text class="ts" x="555" y="233" text-anchor="middle">GPIO · poço + cabine popa</text></g>
<g class="c-teal"><rect x="470" y="302" width="170" height="44" rx="4" stroke-width="0.5"/><text class="th" x="555" y="320" text-anchor="middle">Ecrã 1 · roda</text><text class="ts" x="555" y="337" text-anchor="middle">HDMI 1 · 10" (7" nos testes)</text></g>
<g class="c-teal"><rect x="470" y="354" width="170" height="44" rx="4" stroke-width="0.5"/><text class="th" x="555" y="372" text-anchor="middle">Ecrã 2 · mesa nav.</text><text class="ts" x="555" y="389" text-anchor="middle">HDMI 2 · 7", para a cama</text></g>
<g class="c-purple"><rect x="470" y="406" width="170" height="44" rx="4" stroke-width="0.5"/><text class="th" x="555" y="424" text-anchor="middle">Telemóvel e PC</text><text class="ts" x="555" y="441" text-anchor="middle">Wi-Fi · diário, alarmes</text></g>
<g class="c-teal"><rect x="470" y="458" width="170" height="44" rx="4" stroke-width="0.5"/><text class="th" x="555" y="476" text-anchor="middle">Alimentação 12 V</text><text class="ts" x="555" y="493" text-anchor="middle">fusível 5 A · módulo HAT</text></g>
<line x1="420" y1="116" x2="468" y2="116" class="arr" marker-end="url(#arrow)"/>
<line x1="420" y1="168" x2="468" y2="168" class="arr" marker-end="url(#arrow)"/>
<line x1="420" y1="220" x2="468" y2="220" class="arr" marker-end="url(#arrow)"/>
<line x1="420" y1="324" x2="468" y2="324" class="arr" marker-end="url(#arrow)"/>
<line x1="420" y1="376" x2="468" y2="376" class="arr" marker-end="url(#arrow)"/>
<line x1="420" y1="428" x2="468" y2="428" class="arr" marker-end="url(#arrow)"/>
<line x1="470" y1="480" x2="432" y2="480" class="arr" marker-end="url(#arrow)"/>
<line x1="340" y1="514" x2="340" y2="572" stroke="#1D9E75" stroke-width="1.5"/>
<line x1="60" y1="572" x2="620" y2="572" stroke="#1D9E75" stroke-width="2.5"/>
<text class="ts" x="352" y="564">Rede NMEA 2000 (kit a comprar)</text>
<g class="c-purple"><rect x="40" y="518" width="140" height="44" rx="4" stroke-width="0.5"/><text class="th" x="110" y="536" text-anchor="middle">em-trak B330</text><text class="ts" x="110" y="553" text-anchor="middle">AIS + GPS + Wi-Fi</text></g>
<g class="c-purple"><rect x="190" y="518" width="140" height="44" rx="4" stroke-width="0.5"/><text class="th" x="260" y="536" text-anchor="middle">GPSMAP 421</text><text class="ts" x="260" y="553" text-anchor="middle">Garmin · alarme AIS</text></g>
<line x1="110" y1="562" x2="110" y2="572" stroke="#1D9E75" stroke-width="1.5"/>
<line x1="260" y1="562" x2="260" y2="572" stroke="#1D9E75" stroke-width="1.5"/>
<g class="c-gray"><rect x="150" y="594" width="170" height="44" rx="4" stroke-width="0.5" stroke-dasharray="4 3"/><text class="th" x="235" y="612" text-anchor="middle">EV-100 Wheel</text><text class="ts" x="235" y="629" text-anchor="middle">piloto · a seguir</text></g>
<g class="c-gray"><rect x="380" y="594" width="170" height="44" rx="4" stroke-width="0.5" stroke-dasharray="4 3"/><text class="th" x="465" y="612" text-anchor="middle">Raymarine Axiom</text><text class="ts" x="465" y="629" text-anchor="middle">plotter · mais tarde</text></g>
<line x1="235" y1="572" x2="235" y2="594" stroke="#666" stroke-width="1" stroke-dasharray="4 3"/>
<line x1="465" y1="572" x2="465" y2="594" stroke="#666" stroke-width="1" stroke-dasharray="4 3"/>
<line x1="4" y1="656" x2="676" y2="656" stroke="#bbb" stroke-width="0.8"/>
<g class="c-teal"><rect x="24" y="672" width="14" height="14" rx="3" stroke-width="0.5"/></g><text class="ts" x="44" y="684">Novo (comprar ou fazer)</text>
<g class="c-purple"><rect x="200" y="672" width="14" height="14" rx="3" stroke-width="0.5"/></g><text class="ts" x="220" y="684">Já a bordo</text>
<g class="c-gray"><rect x="310" y="672" width="14" height="14" rx="3" stroke-width="0.5" stroke-dasharray="3 2"/></g><text class="ts" x="330" y="684">Futuro</text>
<text class="ts" x="400" y="684">Autónomos: Navtex NASA · radar no seu ecrã</text>
<text class="ts" x="24" y="704">Numeração e posições a bordo: ver planta-arlequin.pdf</text>
</svg>
