<svg xmlns="http://www.w3.org/2000/svg" viewBox="0 0 680 640" width="1020" height="960">
<title>Arlequin: planta de arranjo interior e sistema de navegação</title>
<style>
text{font-family:Arial,Helvetica,sans-serif}
.th{font-size:14px;font-weight:bold;fill:#1f1f1f}
.ts{font-size:12px;fill:#444}
.c-gray circle,.c-gray rect{fill:#F1EFE8;stroke:#5F5E5A}
.c-gray text{fill:#2C2C2A}
.c-teal circle,.c-teal rect{fill:#E1F5EE;stroke:#0F6E56}
.c-teal text{fill:#085041}
.c-purple circle,.c-purple rect{fill:#EEEDFE;stroke:#534AB7}
.c-purple text{fill:#3C3489}
.c-coral circle,.c-coral rect{fill:#FAECE7;stroke:#993C1D}
</style>
<defs><marker id="arrow" viewBox="0 0 10 10" refX="8" refY="5" markerWidth="6" markerHeight="6" orient="auto-start-reverse"><path d="M2 1L8 5L2 9" fill="none" stroke="context-stroke" stroke-width="1.5" stroke-linecap="round" stroke-linejoin="round"/></marker></defs>
<rect x="0" y="0" width="680" height="640" fill="#ffffff"/>
<rect x="4" y="4" width="672" height="628" rx="6" fill="none" stroke="#bbb" stroke-width="0.8"/>
<text class="th" x="20" y="28">ARLEQUIN · Jeanneau Melody 34</text>
<text class="ts" x="20" y="48">Planta de arranjo interior e sistema de navegação · proa à direita · 28/09/2026</text>
<line x1="4" y1="60" x2="676" y2="60" stroke="#bbb" stroke-width="0.8"/>

<path d="M40 106 C120 86 220 81 320 81 C470 81 580 110 640 180 C580 250 470 279 320 279 C220 279 120 274 40 254 Z" fill="none" stroke="#222" stroke-width="2.2"/>
<path d="M47 111 C124 93 220 88 320 88 C466 88 572 116 628 180 C572 244 466 272 320 272 C220 272 124 267 47 249" fill="none" stroke="#666" stroke-width="0.6"/>
<text class="ts" x="646" y="184">Proa</text>
<text class="ts" x="16" y="104">BB</text><text class="ts" x="16" y="266">EB</text>

<line x1="48" y1="112" x2="48" y2="248" stroke="#666" stroke-width="1" stroke-dasharray="4 3"/>
<circle cx="48" cy="180" r="8" fill="none" stroke="#222" stroke-width="1.2"/>
<circle cx="48" cy="180" r="3" fill="#222"/>

<rect x="60" y="106" width="136" height="44" rx="3" fill="none" stroke="#666" stroke-width="0.8"/>
<rect x="64" y="116" width="164" height="104" rx="10" fill="none" stroke="#666" stroke-width="1" stroke-dasharray="7 4"/>
<circle cx="100" cy="160" r="18" fill="none" stroke="#222" stroke-width="1.6"/>
<circle cx="100" cy="160" r="3" fill="#222"/>
<line x1="82" y1="160" x2="118" y2="160" stroke="#222" stroke-width="0.7"/><line x1="100" y1="142" x2="100" y2="178" stroke="#222" stroke-width="0.7"/>
<line x1="87" y1="147" x2="113" y2="173" stroke="#222" stroke-width="0.7"/><line x1="113" y1="147" x2="87" y2="173" stroke="#222" stroke-width="0.7"/>
<rect x="118" y="154" width="10" height="12" rx="2" fill="none" stroke="#222" stroke-width="1"/>

<rect x="196" y="154" width="48" height="48" rx="3" fill="none" stroke="#222" stroke-width="1.2"/>
<line x1="196" y1="166" x2="244" y2="166" stroke="#666" stroke-width="0.4"/><line x1="196" y1="178" x2="244" y2="178" stroke="#666" stroke-width="0.4"/><line x1="196" y1="190" x2="244" y2="190" stroke="#666" stroke-width="0.4"/>
<g class="c-coral"><rect x="66" y="188" width="126" height="14" rx="3" stroke-width="0.6"/></g>

<line x1="58" y1="206" x2="228" y2="206" stroke="#222" stroke-width="3"/>
<line x1="228" y1="206" x2="228" y2="209" stroke="#222" stroke-width="3"/>
<line x1="228" y1="233" x2="228" y2="276" stroke="#222" stroke-width="3"/>
<path d="M228 233 A24 24 0 0 1 204 209" fill="none" stroke="#666" stroke-width="0.6" stroke-dasharray="2 2"/>
<rect x="72" y="212" width="148" height="42" rx="6" fill="none" stroke="#666" stroke-width="1"/>
<line x1="72" y1="233" x2="198" y2="233" stroke="#666" stroke-width="0.5"/>
<rect x="200" y="216" width="16" height="15" rx="4" fill="none" stroke="#666" stroke-width="0.7"/>
<rect x="200" y="235" width="16" height="15" rx="4" fill="none" stroke="#666" stroke-width="0.7"/>

<rect x="248" y="158" width="30" height="44" rx="2" fill="none" stroke="#222" stroke-width="1"/>
<line x1="255" y1="162" x2="255" y2="198" stroke="#666" stroke-width="0.7"/><line x1="263" y1="162" x2="263" y2="198" stroke="#666" stroke-width="0.7"/><line x1="271" y1="162" x2="271" y2="198" stroke="#666" stroke-width="0.7"/>

<rect x="232" y="89" width="92" height="27" fill="none" stroke="#222" stroke-width="1"/>
<rect x="232" y="116" width="26" height="36" fill="none" stroke="#222" stroke-width="1"/>
<rect x="296" y="116" width="28" height="34" fill="none" stroke="#222" stroke-width="1"/>
<rect x="264" y="92" width="30" height="21" rx="2" fill="none" stroke="#666" stroke-width="0.8"/>
<circle cx="272" cy="102.5" r="5" fill="none" stroke="#666" stroke-width="0.8"/><circle cx="286" cy="102.5" r="5" fill="none" stroke="#666" stroke-width="0.8"/>
<rect x="300" y="92" width="20" height="21" rx="4" fill="none" stroke="#666" stroke-width="0.9"/><circle cx="310" cy="102.5" r="1.8" fill="#666"/>
<rect x="300" y="119" width="20" height="27" rx="4" fill="none" stroke="#666" stroke-width="0.9"/><circle cx="310" cy="132.5" r="1.8" fill="#666"/>
<rect x="236" y="120" width="18" height="28" rx="2" fill="none" stroke="#666" stroke-width="0.8"/><line x1="236" y1="134" x2="254" y2="134" stroke="#666" stroke-width="0.5"/>

<rect x="290" y="220" width="36" height="48" rx="2" fill="none" stroke="#222" stroke-width="1"/>
<line x1="290" y1="232" x2="326" y2="232" stroke="#666" stroke-width="0.5"/>
<rect x="252" y="230" width="32" height="26" rx="5" fill="none" stroke="#666" stroke-width="1"/>

<line x1="326" y1="83" x2="326" y2="150" stroke="#222" stroke-width="3"/>
<line x1="326" y1="216" x2="326" y2="277" stroke="#222" stroke-width="3"/>
<rect x="330" y="88" width="114" height="32" rx="6" fill="none" stroke="#666" stroke-width="1"/>
<rect x="330" y="240" width="114" height="32" rx="6" fill="none" stroke="#666" stroke-width="1"/>
<rect x="336" y="93" width="102" height="22" rx="3" fill="none" stroke="#378ADD" stroke-width="1" stroke-dasharray="4 3"/>
<rect x="336" y="245" width="102" height="22" rx="3" fill="none" stroke="#378ADD" stroke-width="1" stroke-dasharray="4 3"/>
<rect x="334" y="148" width="84" height="64" rx="4" fill="none" stroke="#222" stroke-width="1.2"/>
<line x1="334" y1="162" x2="418" y2="162" stroke="#666" stroke-width="0.5" stroke-dasharray="3 2"/>
<line x1="334" y1="198" x2="418" y2="198" stroke="#666" stroke-width="0.5" stroke-dasharray="3 2"/>
<circle cx="396" cy="180" r="11" fill="none" stroke="#222" stroke-width="1.4"/><circle cx="396" cy="180" r="5" fill="#222"/>

<line x1="446" y1="84" x2="446" y2="156" stroke="#222" stroke-width="3"/>
<line x1="446" y1="204" x2="446" y2="276" stroke="#222" stroke-width="3"/>
<rect x="446" y="90" width="62" height="64" rx="2" fill="none" stroke="#222" stroke-width="1"/>
<rect x="449" y="96" width="16" height="52" rx="2" fill="none" stroke="#666" stroke-width="0.7"/>
<line x1="468" y1="92" x2="468" y2="152" stroke="#666" stroke-width="0.6"/>
<line x1="472" y1="110" x2="504" y2="110" stroke="#666" stroke-width="0.7"/>
<path d="M477 106 L482 110 L477 114 M491 106 L496 110 L491 114" fill="none" stroke="#666" stroke-width="0.6"/>

<line x1="446" y1="204" x2="510" y2="204" stroke="#222" stroke-width="2"/>
<path d="M492 204 A20 20 0 0 0 472 184" fill="none" stroke="#666" stroke-width="0.6" stroke-dasharray="2 2"/>
<rect x="452" y="246" width="30" height="20" rx="3" fill="none" stroke="#666" stroke-width="0.8"/>
<ellipse cx="467" cy="256" rx="8" ry="5.5" fill="none" stroke="#666" stroke-width="0.9"/>
<rect x="497" y="214" width="9" height="20" rx="2" fill="none" stroke="#666" stroke-width="0.8"/>
<ellipse cx="485" cy="224" rx="10" ry="7" fill="none" stroke="#666" stroke-width="0.9"/>

<line x1="510" y1="96" x2="510" y2="164" stroke="#222" stroke-width="3"/>
<line x1="510" y1="196" x2="510" y2="264" stroke="#222" stroke-width="3"/>
<polygon points="516,110 596,134 612,164 612,196 596,226 516,250" fill="none" stroke="#666" stroke-width="1"/>
<line x1="516" y1="180" x2="612" y2="180" stroke="#666" stroke-width="0.5"/>
<line x1="616" y1="160" x2="616" y2="200" stroke="#222" stroke-width="2"/>

<path d="M271 216 L182 216" fill="none" stroke="#1D9E75" stroke-width="1.3" stroke-dasharray="5 3" marker-end="url(#arrow)"/>
<path d="M186 214 L202 204" fill="none" stroke="#D85A30" stroke-width="1.3" marker-end="url(#arrow)"/>
<path d="M258 172 L246 176" fill="none" stroke="#D85A30" stroke-width="1.3" marker-end="url(#arrow)"/>

<g class="c-gray"><circle cx="625" cy="180" r="7" stroke-width="0.5"/><text class="ts" x="625" y="184" text-anchor="middle">a</text></g>
<g class="c-gray"><circle cx="560" cy="158" r="8" stroke-width="0.5"/><text class="ts" x="560" y="162" text-anchor="middle">b</text></g>
<g class="c-gray"><circle cx="490" cy="136" r="8" stroke-width="0.5"/><text class="ts" x="490" y="140" text-anchor="middle">c</text></g>
<g class="c-gray"><circle cx="457" cy="122" r="8" stroke-width="0.5"/><text class="ts" x="457" y="126" text-anchor="middle">d</text></g>
<g class="c-gray"><circle cx="497" cy="254" r="8" stroke-width="0.5"/><text class="ts" x="497" y="258" text-anchor="middle">e</text></g>
<g class="c-gray"><circle cx="425" cy="104" r="8" stroke-width="0.5"/><text class="ts" x="425" y="108" text-anchor="middle">f</text></g>
<g class="c-gray"><circle cx="352" cy="180" r="8" stroke-width="0.5"/><text class="ts" x="352" y="184" text-anchor="middle">g</text></g>
<g class="c-gray"><circle cx="419" cy="159" r="8" stroke-width="0.5"/><text class="ts" x="419" y="163" text-anchor="middle">h</text></g>
<g class="c-gray"><circle cx="277" cy="134" r="8" stroke-width="0.5"/><text class="ts" x="277" y="138" text-anchor="middle">i</text></g>
<g class="c-gray"><circle cx="263" cy="180" r="8" stroke-width="0.5"/><text class="ts" x="263" y="184" text-anchor="middle">j</text></g>
<g class="c-gray"><circle cx="268" cy="243" r="8" stroke-width="0.5"/><text class="ts" x="268" y="247" text-anchor="middle">k</text></g>
<g class="c-gray"><circle cx="110" cy="222" r="8" stroke-width="0.5"/><text class="ts" x="110" y="226" text-anchor="middle">l</text></g>
<g class="c-gray"><circle cx="172" cy="130" r="8" stroke-width="0.5"/><text class="ts" x="172" y="134" text-anchor="middle">m</text></g>
<g class="c-gray"><circle cx="80" cy="120" r="8" stroke-width="0.5"/><text class="ts" x="80" y="124" text-anchor="middle">n</text></g>

<g class="c-teal"><circle cx="142" cy="160" r="10" stroke-width="0.5"/><text class="th" x="142" y="165" text-anchor="middle">1</text></g>
<g class="c-purple"><circle cx="214" cy="130" r="10" stroke-width="0.5"/><text class="th" x="214" y="135" text-anchor="middle">2</text></g>
<g class="c-teal"><circle cx="302" cy="232" r="10" stroke-width="0.5"/><text class="th" x="302" y="237" text-anchor="middle">3</text></g>
<g class="c-purple"><circle cx="314" cy="256" r="10" stroke-width="0.5"/><text class="th" x="314" y="261" text-anchor="middle">4</text></g>
<g class="c-teal"><circle cx="283" cy="213" r="10" stroke-width="0.5"/><text class="th" x="283" y="218" text-anchor="middle">5</text></g>
<g class="c-teal"><circle cx="160" cy="243" r="10" stroke-width="0.5"/><text class="th" x="160" y="248" text-anchor="middle">6</text></g>
<g class="c-purple"><circle cx="220" cy="172" r="10" stroke-width="0.5"/><text class="th" x="220" y="177" text-anchor="middle">7</text></g>
<g class="c-purple"><circle cx="362" cy="104" r="10" stroke-width="0.5"/><text class="th" x="362" y="109" text-anchor="middle">8</text></g>
<g class="c-purple"><circle cx="362" cy="256" r="10" stroke-width="0.5"/><text class="th" x="362" y="261" text-anchor="middle">8</text></g>
<g class="c-purple"><circle cx="24" cy="180" r="10" stroke-width="0.5"/><text class="th" x="24" y="185" text-anchor="middle">9</text></g>
<g class="c-purple"><circle cx="132" cy="195" r="10" stroke-width="0.5"/><text class="th" x="132" y="200" text-anchor="middle">10</text></g>

<rect x="40" y="298" width="58.5" height="6" fill="#222"/>
<rect x="98.5" y="298" width="58.5" height="6" fill="none" stroke="#222" stroke-width="0.8"/>
<rect x="157" y="298" width="58.5" height="6" fill="#222"/>
<text class="ts" x="40" y="320" text-anchor="middle">0</text><text class="ts" x="98.5" y="320" text-anchor="middle">1</text><text class="ts" x="157" y="320" text-anchor="middle">2</text><text class="ts" x="215.5" y="320" text-anchor="middle">3 m</text>
<text class="ts" x="250" y="320">10,25 m × 3,38 m · interior aproximado a partir do plano de origem Jeanneau</text>
<line x1="4" y1="334" x2="676" y2="334" stroke="#bbb" stroke-width="0.8"/>

<text class="th" x="24" y="358">Interior</text>
<g class="c-gray"><circle cx="32" cy="378" r="8" stroke-width="0.5"/><text class="ts" x="32" y="382" text-anchor="middle">a</text></g><text class="ts" x="48" y="382">Paiol da âncora: âncora, corrente e cabos</text>
<g class="c-gray"><circle cx="32" cy="396" r="8" stroke-width="0.5"/><text class="ts" x="32" y="400" text-anchor="middle">b</text></g><text class="ts" x="48" y="400">Cabine de proa, cama em V</text>
<g class="c-gray"><circle cx="32" cy="414" r="8" stroke-width="0.5"/><text class="ts" x="32" y="418" text-anchor="middle">c</text></g><text class="ts" x="48" y="418">Roupeiro</text>
<g class="c-gray"><circle cx="32" cy="432" r="8" stroke-width="0.5"/><text class="ts" x="32" y="436" text-anchor="middle">d</text></g><text class="ts" x="48" y="436">Bar no roupeiro, virado para o beliche</text>
<g class="c-gray"><circle cx="32" cy="450" r="8" stroke-width="0.5"/><text class="ts" x="32" y="454" text-anchor="middle">e</text></g><text class="ts" x="48" y="454">WC: sanita e lavatório encostado ao bordo</text>
<g class="c-gray"><circle cx="32" cy="468" r="8" stroke-width="0.5"/><text class="ts" x="32" y="472" text-anchor="middle">f</text></g><text class="ts" x="48" y="472">Beliches da sala, água doce por baixo</text>
<g class="c-gray"><circle cx="32" cy="486" r="8" stroke-width="0.5"/><text class="ts" x="32" y="490" text-anchor="middle">g</text></g><text class="ts" x="48" y="490">Mesa da sala, de abas</text>
<g class="c-gray"><circle cx="32" cy="504" r="8" stroke-width="0.5"/><text class="ts" x="32" y="508" text-anchor="middle">h</text></g><text class="ts" x="48" y="508">Mastro, por cima da mesa</text>
<g class="c-gray"><circle cx="32" cy="522" r="8" stroke-width="0.5"/><text class="ts" x="32" y="526" text-anchor="middle">i</text></g><text class="ts" x="48" y="526">Cozinha: fogão, lava-loiça 2 cubas, frigorífico</text>
<g class="c-gray"><circle cx="32" cy="540" r="8" stroke-width="0.5"/><text class="ts" x="32" y="544" text-anchor="middle">j</text></g><text class="ts" x="48" y="544">Escada</text>
<g class="c-gray"><circle cx="32" cy="558" r="8" stroke-width="0.5"/><text class="ts" x="32" y="562" text-anchor="middle">k</text></g><text class="ts" x="48" y="562">Mesa de navegação e banco</text>
<g class="c-gray"><circle cx="32" cy="576" r="8" stroke-width="0.5"/><text class="ts" x="32" y="580" text-anchor="middle">l</text></g><text class="ts" x="48" y="580">Cabine de popa, cama de casal</text>
<g class="c-gray"><circle cx="32" cy="594" r="8" stroke-width="0.5"/><text class="ts" x="32" y="598" text-anchor="middle">m</text></g><text class="ts" x="48" y="598">Poço e roda (convés)</text>
<g class="c-gray"><circle cx="32" cy="612" r="8" stroke-width="0.5"/><text class="ts" x="32" y="616" text-anchor="middle">n</text></g><text class="ts" x="48" y="616">Paiol do poço</text>

<line x1="340" y1="344" x2="340" y2="624" stroke="#bbb" stroke-width="0.8"/>
<text class="th" x="356" y="358">Sistema de navegação</text>
<g class="c-teal"><circle cx="366" cy="378" r="9" stroke-width="0.5"/><text class="ts" x="366" y="382" text-anchor="middle">1</text></g><text class="ts" x="382" y="382">Ecrã 1 (10") e besouro 1, na roda</text>
<g class="c-purple"><circle cx="366" cy="396" r="9" stroke-width="0.5"/><text class="ts" x="366" y="400" text-anchor="middle">2</text></g><text class="ts" x="382" y="400">NASA, ST4000+ e ST50, no poço</text>
<g class="c-teal"><circle cx="366" cy="414" r="9" stroke-width="0.5"/><text class="ts" x="366" y="418" text-anchor="middle">3</text></g><text class="ts" x="382" y="418">Pi 5 + MacArthur, na mesa de navegação</text>
<g class="c-purple"><circle cx="366" cy="432" r="9" stroke-width="0.5"/><text class="ts" x="366" y="436" text-anchor="middle">4</text></g><text class="ts" x="382" y="436">VHF, radar JRC, Navtex, Garmin, AIS B330</text>
<g class="c-teal"><circle cx="366" cy="450" r="9" stroke-width="0.5"/><text class="ts" x="366" y="454" text-anchor="middle">5</text></g><text class="ts" x="382" y="454">Ecrã 2 (7"), virado para a cama</text>
<g class="c-teal"><circle cx="366" cy="468" r="9" stroke-width="0.5"/><text class="ts" x="366" y="472" text-anchor="middle">6</text></g><text class="ts" x="382" y="472">Besouro 2, à cabeceira</text>
<g class="c-purple"><circle cx="366" cy="486" r="9" stroke-width="0.5"/><text class="ts" x="366" y="490" text-anchor="middle">7</text></g><text class="ts" x="382" y="490">Motor Volvo Penta D1-20B</text>
<g class="c-purple"><circle cx="366" cy="504" r="9" stroke-width="0.5"/><text class="ts" x="366" y="508" text-anchor="middle">8</text></g><text class="ts" x="382" y="508">Água doce, 2 depósitos flexíveis</text>
<g class="c-purple"><circle cx="366" cy="522" r="9" stroke-width="0.5"/><text class="ts" x="366" y="526" text-anchor="middle">9</text></g><text class="ts" x="382" y="526">Radome do radar, arco de popa ao centro</text>
<g class="c-purple"><circle cx="366" cy="540" r="9" stroke-width="0.5"/><text class="ts" x="366" y="544" text-anchor="middle">10</text></g><text class="ts" x="382" y="544">Gasóleo 200 L inox, até à popa</text>
<g class="c-teal"><rect x="358" y="566" width="14" height="12" rx="3" stroke-width="0.5"/></g><text class="ts" x="378" y="576">Novo</text>
<g class="c-purple"><rect x="430" y="566" width="14" height="12" rx="3" stroke-width="0.5"/></g><text class="ts" x="450" y="576">Já a bordo</text>
<line x1="530" y1="572" x2="556" y2="572" stroke="#378ADD" stroke-width="1.2" stroke-dasharray="4 3"/><text class="ts" x="562" y="576">Água</text>
<line x1="358" y1="596" x2="384" y2="596" stroke="#1D9E75" stroke-width="1.3" stroke-dasharray="5 3"/><text class="ts" x="390" y="600">Vista da cama para o ecrã 2</text>
<line x1="358" y1="614" x2="382" y2="614" stroke="#D85A30" stroke-width="1.3" marker-end="url(#arrow)"/><text class="ts" x="390" y="618">Acesso ao motor (cabine e escada)</text>
</svg>
